Oxanium-ExtraBold.ufo
<glyph name="parenleft" format="2">
  <advance width="367"/>
  <unicode hex="0028"/>
  <outline>
    <contour>
      <point x="222" y="-205" type="line"/>
      <point x="61" y="16"/>
      <point x="61" y="564"/>
      <point x="222" y="785" type="qcurve"/>
      <point x="350" y="690" type="line"/>
      <point x="228" y="514"/>
      <point x="228" y="66"/>
      <point x="350" y="-110" type="qcurve"/>
    </contour>
  </outline>
</glyph>
<glyph name="three" format="2">
  <advance width="578"/>
  <unicode hex="0033"/>
  <outline>
    <contour>
      <point x="56" y="60" type="line"/>
      <point x="56" y="157" type="line"/>
      <point x="347" y="157" type="line" smooth="yes"/>
      <point x="358" y="157"/>
      <point x="358" y="168" type="qcurve" smooth="yes"/>
      <point x="358" y="262" type="line" smooth="yes"/>
      <point x="358" y="273"/>
      <point x="347" y="273" type="qcurve" smooth="yes"/>
      <point x="130" y="273" type="line"/>
      <point x="130" y="430" type="line"/>
      <point x="347" y="430" type="line" smooth="yes"/>
      <point x="358" y="430"/>
      <point x="358" y="441" type="qcurve" smooth="yes"/>
      <point x="358" y="522" type="line" smooth="yes"/>
      <point x="358" y="533"/>
      <point x="347" y="533" type="qcurve" smooth="yes"/>
      <point x="66" y="533" type="line"/>
      <point x="66" y="630" type="line"/>
      <point x="144" y="690" type="line"/>
      <point x="356" y="690" type="line" smooth="yes"/>
      <point x="532" y="690"/>
      <point x="532" y="514" type="qcurve" smooth="yes"/>
      <point x="532" y="455" type="line" smooth="yes"/>
      <point x="532" y="415"/>
      <point x="507" y="390" type="qcurve" smooth="yes"/>
      <point x="472" y="355" type="line"/>
      <point x="507" y="320" type="line" smooth="yes"/>
      <point x="532" y="295"/>
      <point x="532" y="255" type="qcurve" smooth="yes"/>
      <point x="532" y="176" type="line" smooth="yes"/>
      <point x="532" y="0"/>
      <point x="356" y="0" type="qcurve" smooth="yes"/>
      <point x="134" y="0" type="line"/>
    </contour>
  </outline>
</glyph>
<glyph name="six" format="2">
  <advance width="578"/>
  <unicode hex="0036"/>
  <outline>
    <contour>
      <point x="46" y="176" type="qcurve" smooth="yes"/>
      <point x="46" y="479" type="line" smooth="yes"/>
      <point x="46" y="690"/>
      <point x="257" y="690" type="qcurve" smooth="yes"/>
      <point x="414" y="690" type="line"/>
      <point x="492" y="630" type="line"/>
      <point x="492" y="533" type="line"/>
      <point x="253" y="533" type="line" smooth="yes"/>
      <point x="220" y="533"/>
      <point x="220" y="500" type="qcurve" smooth="yes"/>
      <point x="220" y="440" type="line"/>
      <point x="356" y="440" type="line" smooth="yes"/>
      <point x="532" y="440"/>
      <point x="532" y="264" type="qcurve" smooth="yes"/>
      <point x="532" y="176" type="line" smooth="yes"/>
      <point x="532" y="0"/>
      <point x="356" y="0" type="qcurve" smooth="yes"/>
      <point x="222" y="0" type="line" smooth="yes"/>
      <point x="46" y="0"/>
    </contour>
    <contour>
      <point x="220" y="168" type="line" smooth="yes"/>
      <point x="220" y="157"/>
      <point x="231" y="157" type="qcurve" smooth="yes"/>
      <point x="347" y="157" type="line" smooth="yes"/>
      <point x="358" y="157"/>
      <point x="358" y="168" type="qcurve" smooth="yes"/>
      <point x="358" y="272" type="line" smooth="yes"/>
      <point x="358" y="283"/>
      <point x="347" y="283" type="qcurve" smooth="yes"/>
      <point x="220" y="283" type="line"/>
    </contour>
  </outline>
</glyph>
<glyph name="question" format="2">
  <advance width="536"/>
  <unicode hex="003F"/>
  <outline>
    <contour>
      <point x="40" y="533" type="line"/>
      <point x="40" y="630" type="line"/>
      <point x="118" y="690" type="line"/>
      <point x="310" y="690" type="line" smooth="yes"/>
      <point x="486" y="690"/>
      <point x="486" y="514" type="qcurve" smooth="yes"/>
      <point x="486" y="444" type="line" smooth="yes"/>
      <point x="486" y="258"/>
      <point x="321" y="258" type="qcurve" smooth="yes"/>
      <point x="317" y="258" type="line"/>
      <point x="317" y="228" type="line"/>
      <point x="143" y="228" type="line"/>
      <point x="143" y="415" type="line"/>
      <point x="301" y="415" type="line" smooth="yes"/>
      <point x="312" y="415"/>
      <point x="312" y="426" type="qcurve" smooth="yes"/>
      <point x="312" y="522" type="line" smooth="yes"/>
      <point x="312" y="533"/>
      <point x="301" y="533" type="qcurve" smooth="yes"/>
    </contour>
    <contour>
      <point x="142" y="0" type="line"/>
      <point x="142" y="161" type="line"/>
      <point x="318" y="161" type="line"/>
      <point x="318" y="0" type="line"/>
    </contour>
  </outline>
</glyph>
<glyph name="A" format="2">
  <advance width="684"/>
  <unicode hex="0041"/>
  <anchor x="342" y="690" name="top"/>
  <anchor x="342" y="0" name="bottom"/>
  <outline>
    <contour>
      <point x="17" y="32" type="line"/>
      <point x="212" y="690" type="line"/>
      <point x="472" y="690" type="line"/>
      <point x="667" y="32" type="line"/>
      <point x="646" y="0" type="line"/>
      <point x="500" y="0" type="line"/>
      <point x="466" y="123" type="line"/>
      <point x="218" y="123" type="line"/>
      <point x="184" y="0" type="line"/>
      <point x="38" y="0" type="line"/>
    </contour>
    <contour>
      <point x="264" y="280" type="line"/>
      <point x="420" y="280" type="line"/>
      <point x="348" y="533" type="line"/>
      <point x="336" y="533" type="line"/>
    </contour>
  </outline>
</glyph>
<glyph name="F" format="2">
  <advance width="591"/>
  <unicode hex="0046"/>
  <anchor x="316" y="690" name="top"/>
  <anchor x="186" y="0" name="bottom"/>
  <outline>
    <contour>
      <point x="78" y="0" type="line"/>
      <point x="78" y="690" type="line"/>
      <point x="561" y="690" type="line"/>
      <point x="561" y="533" type="line"/>
      <point x="252" y="533" type="line"/>
      <point x="252" y="400" type="line"/>
      <point x="531" y="400" type="line"/>
      <point x="531" y="243" type="line"/>
      <point x="252" y="243" type="line"/>
      <point x="252" y="0" type="line"/>
    </contour>
  </outline>
</glyph>
<glyph name="G" format="2">
  <advance width="682"/>
  <unicode hex="0047"/>
  <outline>
    <contour>
      <point x="68" y="176" type="qcurve" smooth="yes"/>
      <point x="68" y="514" type="line" smooth="yes"/>
      <point x="68" y="690"/>
      <point x="244" y="690" type="qcurve" smooth="yes"/>
      <point x="526" y="690" type="line"/>
      <point x="604" y="630" type="line"/>
      <point x="604" y="533" type="line"/>
      <point x="253" y="533" type="line" smooth="yes"/>
      <point x="242" y="533"/>
      <point x="242" y="522" type="qcurve" smooth="yes"/>
      <point x="242" y="168" type="line" smooth="yes"/>
      <point x="242" y="157"/>
      <point x="253" y="157" type="qcurve" smooth="yes"/>
      <point x="450" y="157" type="line"/>
      <point x="450" y="273" type="line"/>
      <point x="337" y="273" type="line"/>
      <point x="337" y="430" type="line"/>
      <point x="624" y="430" type="line"/>
      <point x="624" y="0" type="line"/>
      <point x="244" y="0" type="line" smooth="yes"/>
      <point x="68" y="0"/>
    </contour>
  </outline>
</glyph>
<glyph name="I" format="2">
  <advance width="330"/>
  <unicode hex="0049"/>
  <anchor x="165" y="690" name="top"/>
  <anchor x="165" y="0" name="bottom"/>
  <outline>
    <contour>
      <point x="78" y="0" type="line"/>
      <point x="78" y="690" type="line"/>
      <point x="252" y="690" type="line"/>
      <point x="252" y="0" type="line"/>
    </contour>
  </outline>
</glyph>
<glyph name="J" format="2">
  <advance width="616"/>
  <unicode hex="004A"/>
  <anchor x="393" y="690" name="top"/>
  <anchor x="296" y="0" name="bottom"/>
  <outline>
    <contour>
      <point x="48" y="176" type="qcurve" smooth="yes"/>
      <point x="48" y="320" type="line"/>
      <point x="222" y="320" type="line"/>
      <point x="222" y="168" type="line" smooth="yes"/>
      <point x="222" y="157"/>
      <point x="233" y="157" type="qcurve" smooth="yes"/>
      <point x="359" y="157" type="line" smooth="yes"/>
      <point x="370" y="157"/>
      <point x="370" y="168" type="qcurve" smooth="yes"/>
      <point x="370" y="533" type="line"/>
      <point x="201" y="533" type="line"/>
      <point x="201" y="690" type="line"/>
      <point x="544" y="690" type="line"/>
      <point x="544" y="176" type="line" smooth="yes"/>
      <point x="544" y="0"/>
      <point x="368" y="0" type="qcurve" smooth="yes"/>
      <point x="224" y="0" type="line" smooth="yes"/>
      <point x="48" y="0"/>
    </contour>
  </outline>
</glyph>
<glyph name="M" format="2">
  <advance width="912"/>
  <unicode hex="004D"/>
  <anchor x="456" y="690" name="top"/>
  <anchor x="456" y="0" name="bottom"/>
  <outline>
    <contour>
      <point x="78" y="0" type="line"/>
      <point x="78" y="690" type="line"/>
      <point x="280" y="690" type="line"/>
      <point x="456" y="314" type="line"/>
      <point x="632" y="690" type="line"/>
      <point x="834" y="690" type="line"/>
      <point x="834" y="0" type="line"/>
      <point x="660" y="0" type="line"/>
      <point x="660" y="372" type="line"/>
      <point x="526" y="85" type="line"/>
      <point x="386" y="85" type="line"/>
      <point x="252" y="372" type="line"/>
      <point x="252" y="0" type="line"/>
    </contour>
  </outline>
</glyph>
<glyph name="N" format="2">
  <advance width="747"/>
  <unicode hex="004E"/>
  <anchor x="380" y="690" name="top"/>
  <anchor x="368" y="0" name="bottom"/>
  <outline>
    <contour>
      <point x="78" y="0" type="line"/>
      <point x="78" y="690" type="line"/>
      <point x="266" y="690" type="line"/>
      <point x="495" y="290" type="line"/>
      <point x="495" y="690" type="line"/>
      <point x="669" y="690" type="line"/>
      <point x="669" y="0" type="line"/>
      <point x="482" y="0" type="line"/>
      <point x="252" y="400" type="line"/>
      <point x="252" y="0" type="line"/>
    </contour>
  </outline>
</glyph>
<glyph name="T" format="2">
  <advance width="622"/>
  <unicode hex="0054"/>
  <outline>
    <contour>
      <point x="24" y="533" type="line"/>
      <point x="24" y="690" type="line"/>
      <point x="598" y="690" type="line"/>
      <point x="598" y="533" type="line"/>
      <point x="398" y="533" type="line"/>
      <point x="398" y="0" type="line"/>
      <point x="224" y="0" type="line"/>
      <point x="224" y="533" type="line"/>
    </contour>
  </outline>
</glyph>
<glyph name="V" format="2">
  <advance width="674"/>
  <unicode hex="0056"/>
  <outline>
    <contour>
      <point x="17" y="658" type="line"/>
      <point x="38" y="690" type="line"/>
      <point x="192" y="690" type="line"/>
      <point x="331" y="157" type="line"/>
      <point x="343" y="157" type="line"/>
      <point x="482" y="690" type="line"/>
      <point x="636" y="690" type="line"/>
      <point x="657" y="658" type="line"/>
      <point x="472" y="0" type="line"/>
      <point x="202" y="0" type="line"/>
    </contour>
  </outline>
</glyph>
<glyph name="W" format="2">
  <advance width="974"/>
  <unicode hex="0057"/>
  <anchor x="487" y="690" name="top"/>
  <anchor x="487" y="0" name="bottom"/>
  <outline>
    <contour>
      <point x="27" y="658" type="line"/>
      <point x="50" y="690" type="line"/>
      <point x="194" y="690" type="line"/>
      <point x="289" y="157" type="line"/>
      <point x="298" y="157" type="line"/>
      <point x="402" y="629" type="line"/>
      <point x="572" y="629" type="line"/>
      <point x="676" y="157" type="line"/>
      <point x="685" y="157" type="line"/>
      <point x="780" y="690" type="line"/>
      <point x="924" y="690" type="line"/>
      <point x="947" y="658" type="line"/>
      <point x="824" y="0" type="line"/>
      <point x="550" y="0" type="line"/>
      <point x="487" y="308" type="line"/>
      <point x="424" y="0" type="line"/>
      <point x="150" y="0" type="line"/>
    </contour>
  </outline>
</glyph>
<glyph name="a" format="2">
  <advance width="554"/>
  <unicode hex="0061"/>
  <anchor x="278" y="532" name="top"/>
  <anchor x="278" y="0" name="bottom"/>
  <outline>
    <contour>
      <point x="208" y="0" type="line" smooth="yes"/>
      <point x="40" y="0"/>
      <point x="40" y="326"/>
      <point x="208" y="326" type="qcurve" smooth="yes"/>
      <point x="323" y="326" type="line"/>
      <point x="323" y="374" type="line" smooth="yes"/>
      <point x="323" y="387"/>
      <point x="310" y="387" type="qcurve" smooth="yes"/>
      <point x="99" y="387" type="line"/>
      <point x="99" y="480" type="line"/>
      <point x="169" y="532" type="line"/>
      <point x="322" y="532" type="line" smooth="yes"/>
      <point x="490" y="532"/>
      <point x="490" y="364" type="qcurve" smooth="yes"/>
      <point x="490" y="0" type="line"/>
    </contour>
    <contour>
      <point x="207" y="158" type="line" smooth="yes"/>
      <point x="207" y="145"/>
      <point x="220" y="145" type="qcurve" smooth="yes"/>
      <point x="323" y="145" type="line"/>
      <point x="323" y="200" type="line"/>
      <point x="220" y="200" type="line" smooth="yes"/>
      <point x="207" y="200"/>
      <point x="207" y="187" type="qcurve" smooth="yes"/>
    </contour>
  </outline>
</glyph>
<glyph name="b" format="2">
  <advance width="594"/>
  <unicode hex="0062"/>
  <anchor x="162" y="717" name="top"/>
  <anchor x="301" y="0" name="bottom"/>
  <outline>
    <contour>
      <point x="68" y="0" type="line"/>
      <point x="68" y="740" type="line"/>
      <point x="235" y="740" type="line"/>
      <point x="235" y="532" type="line"/>
      <point x="366" y="532" type="line" smooth="yes"/>
      <point x="534" y="532"/>
      <point x="534" y="364" type="qcurve" smooth="yes"/>
      <point x="534" y="168" type="line" smooth="yes"/>
      <point x="534" y="0"/>
      <point x="366" y="0" type="qcurve" smooth="yes"/>
    </contour>
    <contour>
      <point x="235" y="145" type="line"/>
      <point x="354" y="145" type="line" smooth="yes"/>
      <point x="367" y="145"/>
      <point x="367" y="158" type="qcurve" smooth="yes"/>
      <point x="367" y="374" type="line" smooth="yes"/>
      <point x="367" y="387"/>
      <point x="354" y="387" type="qcurve" smooth="yes"/>
      <point x="235" y="387" type="line"/>
    </contour>
  </outline>
</glyph>
<glyph name="c" format="2">
  <advance width="525"/>
  <unicode hex="0063"/>
  <anchor x="290" y="532" name="top"/>
  <anchor x="290" y="0" name="bottom"/>
  <outline>
    <contour>
      <point x="60" y="168" type="qcurve" smooth="yes"/>
      <point x="60" y="364" type="line" smooth="yes"/>
      <point x="60" y="532"/>
      <point x="228" y="532" type="qcurve" smooth="yes"/>
      <point x="409" y="532" type="line"/>
      <point x="479" y="480" type="line"/>
      <point x="479" y="387" type="line"/>
      <point x="240" y="387" type="line" smooth="yes"/>
      <point x="227" y="387"/>
      <point x="227" y="374" type="qcurve" smooth="yes"/>
      <point x="227" y="158" type="line" smooth="yes"/>
      <point x="227" y="145"/>
      <point x="240" y="145" type="qcurve" smooth="yes"/>
      <point x="479" y="145" type="line"/>
      <point x="479" y="52" type="line"/>
      <point x="409" y="0" type="line"/>
      <point x="228" y="0" type="line" smooth="yes"/>
      <point x="60" y="0"/>
    </contour>
  </outline>
</glyph>
<glyph name="e" format="2">
  <advance width="586"/>
  <unicode hex="0065"/>
  <outline>
    <contour>
      <point x="60" y="168" type="qcurve" smooth="yes"/>
      <point x="60" y="364" type="line" smooth="yes"/>
      <point x="60" y="532"/>
      <point x="228" y="532" type="qcurve" smooth="yes"/>
      <point x="358" y="532" type="line" smooth="yes"/>
      <point x="526" y="532"/>
      <point x="526" y="364" type="qcurve" smooth="yes"/>
      <point x="526" y="205" type="line"/>
      <point x="227" y="205" type="line"/>
      <point x="227" y="158" type="line" smooth="yes"/>
      <point x="227" y="145"/>
      <point x="240" y="145" type="qcurve" smooth="yes"/>
      <point x="506" y="145" type="line"/>
      <point x="506" y="52" type="line"/>
      <point x="436" y="0" type="line"/>
      <point x="228" y="0" type="line" smooth="yes"/>
      <point x="60" y="0"/>
    </contour>
    <contour>
      <point x="227" y="331" type="line"/>
      <point x="359" y="331" type="line"/>
      <point x="359" y="374" type="line" smooth="yes"/>
      <point x="359" y="387"/>
      <point x="346" y="387" type="qcurve" smooth="yes"/>
      <point x="240" y="387" type="line" smooth="yes"/>
      <point x="227" y="387"/>
      <point x="227" y="374" type="qcurve" smooth="yes"/>
    </contour>
  </outline>
</glyph>
<glyph name="j" format="2">
  <advance width="303"/>
  <unicode hex="006A"/>
  <anchor x="152" y="754" name="top"/>
  <anchor x="114" y="-200" name="bottom"/>
  <outline>
    <contour>
      <point x="-11" y="-70" type="line"/>
      <point x="68" y="-64"/>
      <point x="68" y="14" type="qcurve" smooth="yes"/>
      <point x="68" y="532" type="line"/>
      <point x="235" y="532" type="line"/>
      <point x="235" y="35" type="line" smooth="yes"/>
      <point x="235" y="-211"/>
      <point x="-11" y="-211" type="qcurve"/>
    </contour>
    <contour>
      <point x="66" y="614" type="line"/>
      <point x="66" y="769" type="line"/>
      <point x="237" y="769" type="line"/>
      <point x="237" y="614" type="line"/>
    </contour>
  </outline>
</glyph>
<glyph name="k" format="2">
  <advance width="606"/>
  <unicode hex="006B"/>
  <anchor x="162" y="717" name="top"/>
  <anchor x="300" y="0" name="bottom"/>
  <outline>
    <contour>
      <point x="68" y="0" type="line"/>
      <point x="68" y="740" type="line"/>
      <point x="235" y="740" type="line"/>
      <point x="235" y="366" type="line"/>
      <point x="389" y="532" type="line"/>
      <point x="554" y="532" type="line"/>
      <point x="567" y="505" type="line"/>
      <point x="386" y="311" type="line"/>
      <point x="581" y="27" type="line"/>
      <point x="568" y="0" type="line"/>
      <point x="404" y="0" type="line"/>
      <point x="276" y="192" type="line"/>
      <point x="235" y="147" type="line"/>
      <point x="235" y="0" type="line"/>
    </contour>
  </outline>
</glyph>
<glyph name="l" format="2">
  <advance width="335"/>
  <unicode hex="006C"/>
  <anchor x="148" y="717" name="top"/>
  <anchor x="190" y="0" name="bottom"/>
  <outline>
    <contour>
      <point x="64" y="217" type="qcurve" smooth="yes"/>
      <point x="64" y="740" type="line"/>
      <point x="231" y="740" type="line"/>
      <point x="231" y="200" type="line" smooth="yes"/>
      <point x="231" y="141"/>
      <point x="292" y="134" type="qcurve"/>
      <point x="292" y="-11" type="line"/>
      <point x="64" y="-11"/>
    </contour>
  </outline>
</glyph>
<glyph name="m" format="2">
  <advance width="908"/>
  <unicode hex="006D"/>
  <anchor x="456" y="532" name="top"/>
  <anchor x="456" y="0" name="bottom"/>
  <outline>
    <contour>
      <point x="68" y="0" type="line"/>
      <point x="68" y="532" type="line"/>
      <point x="676" y="532" type="line" smooth="yes"/>
      <point x="844" y="532"/>
      <point x="844" y="364" type="qcurve" smooth="yes"/>
      <point x="844" y="0" type="line"/>
      <point x="677" y="0" type="line"/>
      <point x="677" y="374" type="line" smooth="yes"/>
      <point x="677" y="387"/>
      <point x="664" y="387" type="qcurve" smooth="yes"/>
      <point x="540" y="387" type="line"/>
      <point x="540" y="0" type="line"/>
      <point x="372" y="0" type="line"/>
      <point x="372" y="387" type="line"/>
      <point x="235" y="387" type="line"/>
      <point x="235" y="0" type="line"/>
    </contour>
  </outline>
</glyph>
<glyph name="n" format="2">
  <advance width="598"/>
  <unicode hex="006E"/>
  <anchor x="301" y="532" name="top"/>
  <anchor x="301" y="0" name="bottom"/>
  <outline>
    <contour>
      <point x="68" y="0" type="line"/>
      <point x="68" y="532" type="line"/>
      <point x="366" y="532" type="line" smooth="yes"/>
      <point x="534" y="532"/>
      <point x="534" y="364" type="qcurve" smooth="yes"/>
      <point x="534" y="0" type="line"/>
      <point x="367" y="0" type="line"/>
      <point x="367" y="374" type="line" smooth="yes"/>
      <point x="367" y="387"/>
      <point x="354" y="387" type="qcurve" smooth="yes"/>
      <point x="235" y="387" type="line"/>
      <point x="235" y="0" type="line"/>
    </contour>
  </outline>
</glyph>
<glyph name="o" format="2">
  <advance width="596"/>
  <unicode hex="006F"/>
  <anchor x="298" y="532" name="top"/>
  <anchor x="298" y="0" name="bottom"/>
  <outline>
    <contour>
      <point x="60" y="168" type="qcurve" smooth="yes"/>
      <point x="60" y="364" type="line" smooth="yes"/>
      <point x="60" y="532"/>
      <point x="228" y="532" type="qcurve" smooth="yes"/>
      <point x="368" y="532" type="line" smooth="yes"/>
      <point x="536" y="532"/>
      <point x="536" y="364" type="qcurve" smooth="yes"/>
      <point x="536" y="168" type="line" smooth="yes"/>
      <point x="536" y="0"/>
      <point x="368" y="0" type="qcurve" smooth="yes"/>
      <point x="228" y="0" type="line" smooth="yes"/>
      <point x="60" y="0"/>
    </contour>
    <contour>
      <point x="227" y="158" type="line" smooth="yes"/>
      <point x="227" y="145"/>
      <point x="240" y="145" type="qcurve" smooth="yes"/>
      <point x="356" y="145" type="line" smooth="yes"/>
      <point x="369" y="145"/>
      <point x="369" y="158" type="qcurve" smooth="yes"/>
      <point x="369" y="374" type="line" smooth="yes"/>
      <point x="369" y="387"/>
      <point x="356" y="387" type="qcurve" smooth="yes"/>
      <point x="240" y="387" type="line" smooth="yes"/>
      <point x="227" y="387"/>
      <point x="227" y="374" type="qcurve" smooth="yes"/>
    </contour>
  </outline>
</glyph>
<glyph name="p" format="2">
  <advance width="594"/>
  <unicode hex="0070"/>
  <anchor x="301" y="532" name="top"/>
  <anchor x="162" y="-200" name="bottom"/>
  <outline>
    <contour>
      <point x="68" y="-200" type="line"/>
      <point x="68" y="532" type="line"/>
      <point x="366" y="532" type="line" smooth="yes"/>
      <point x="534" y="532"/>
      <point x="534" y="364" type="qcurve" smooth="yes"/>
      <point x="534" y="168" type="line" smooth="yes"/>
      <point x="534" y="0"/>
      <point x="366" y="0" type="qcurve" smooth="yes"/>
      <point x="235" y="0" type="line"/>
      <point x="235" y="-200" type="line"/>
    </contour>
    <contour>
      <point x="235" y="145" type="line"/>
      <point x="354" y="145" type="line" smooth="yes"/>
      <point x="367" y="145"/>
      <point x="367" y="158" type="qcurve" smooth="yes"/>
      <point x="367" y="374" type="line" smooth="yes"/>
      <point x="367" y="387"/>
      <point x="354" y="387" type="qcurve" smooth="yes"/>
      <point x="235" y="387" type="line"/>
    </contour>
  </outline>
</glyph>
<glyph name="r" format="2">
  <advance width="420"/>
  <unicode hex="0072"/>
  <anchor x="226" y="532" name="top"/>
  <anchor x="148" y="0" name="bottom"/>
  <outline>
    <contour>
      <point x="64" y="0" type="line"/>
      <point x="64" y="460" type="line"/>
      <point x="102" y="532"/>
      <point x="212" y="532" type="qcurve" smooth="yes"/>
      <point x="324" y="532" type="line"/>
      <point x="394" y="480" type="line"/>
      <point x="394" y="387" type="line"/>
      <point x="262" y="387" type="line" smooth="yes"/>
      <point x="238" y="387"/>
      <point x="231" y="376" type="qcurve"/>
      <point x="231" y="0" type="line"/>
    </contour>
  </outline>
</glyph>
<glyph name="x" format="2">
  <advance width="574"/>
  <unicode hex="0078"/>
  <anchor x="287" y="532" name="top"/>
  <anchor x="287" y="0" name="bottom"/>
  <outline>
    <contour>
      <point x="27" y="27" type="line"/>
      <point x="194" y="268" type="line"/>
      <point x="31" y="505" type="line"/>
      <point x="44" y="532" type="line"/>
      <point x="198" y="532" type="line"/>
      <point x="287" y="394" type="line"/>
      <point x="376" y="532" type="line"/>
      <point x="530" y="532" type="line"/>
      <point x="543" y="505" type="line"/>
      <point x="380" y="268" type="line"/>
      <point x="547" y="27" type="line"/>
      <point x="534" y="0" type="line"/>
      <point x="380" y="0" type="line"/>
      <point x="287" y="141" type="line"/>
      <point x="194" y="0" type="line"/>
      <point x="40" y="0" type="line"/>
    </contour>
  </outline>
</glyph>
<glyph name="y" format="2">
  <advance width="574"/>
  <unicode hex="0079"/>
  <anchor x="287" y="532" name="top"/>
  <anchor x="267" y="-200" name="bottom"/>
  <outline>
    <contour>
      <point x="17" y="508" type="line"/>
      <point x="34" y="532" type="line"/>
      <point x="178" y="532" type="line"/>
      <point x="284" y="145" type="line"/>
      <point x="290" y="145" type="line"/>
      <point x="396" y="532" type="line"/>
      <point x="540" y="532" type="line"/>
      <point x="557" y="508" type="line"/>
      <point x="348" y="-200" type="line"/>
      <point x="204" y="-200" type="line"/>
      <point x="187" y="-176" type="line"/>
      <point x="244" y="0" type="line"/>
      <point x="168" y="0" type="line"/>
    </contour>
  </outline>
</glyph>
<glyph name="cent" format="2">
  <advance width="578"/>
  <unicode hex="00A2"/>
  <outline>
    <contour>
      <point x="76" y="168" type="qcurve" smooth="yes"/>
      <point x="76" y="364" type="line" smooth="yes"/>
      <point x="76" y="532"/>
      <point x="244" y="532" type="qcurve" smooth="yes"/>
      <point x="247" y="532" type="line"/>
      <point x="247" y="642" type="line"/>
      <point x="385" y="642" type="line"/>
      <point x="385" y="532" type="line"/>
      <point x="425" y="532" type="line"/>
      <point x="495" y="480" type="line"/>
      <point x="495" y="387" type="line"/>
      <point x="256" y="387" type="line" smooth="yes"/>
      <point x="243" y="387"/>
      <point x="243" y="374" type="qcurve" smooth="yes"/>
      <point x="243" y="158" type="line" smooth="yes"/>
      <point x="243" y="145"/>
      <point x="256" y="145" type="qcurve" smooth="yes"/>
      <point x="495" y="145" type="line"/>
      <point x="495" y="52" type="line"/>
      <point x="425" y="0" type="line"/>
      <point x="385" y="0" type="line"/>
      <point x="385" y="-110" type="line"/>
      <point x="247" y="-110" type="line"/>
      <point x="247" y="0" type="line"/>
      <point x="244" y="0" type="line" smooth="yes"/>
      <point x="76" y="0"/>
    </contour>
  </outline>
</glyph>
<glyph name="sterling" format="2">
  <advance width="578"/>
  <unicode hex="00A3"/>
  <outline>
    <contour>
      <point x="49" y="0" type="line"/>
      <point x="49" y="157" type="line"/>
      <point x="136" y="157" type="line"/>
      <point x="136" y="276" type="line"/>
      <point x="49" y="276" type="line"/>
      <point x="49" y="414" type="line"/>
      <point x="136" y="414" type="line"/>
      <point x="136" y="514" type="line" smooth="yes"/>
      <point x="136" y="690"/>
      <point x="312" y="690" type="qcurve" smooth="yes"/>
      <point x="441" y="690" type="line"/>
      <point x="519" y="630" type="line"/>
      <point x="519" y="533" type="line"/>
      <point x="321" y="533" type="line" smooth="yes"/>
      <point x="310" y="533"/>
      <point x="310" y="522" type="qcurve" smooth="yes"/>
      <point x="310" y="414" type="line"/>
      <point x="433" y="414" type="line"/>
      <point x="433" y="276" type="line"/>
      <point x="310" y="276" type="line"/>
      <point x="310" y="157" type="line"/>
      <point x="539" y="157" type="line"/>
      <point x="539" y="0" type="line"/>
    </contour>
  </outline>
</glyph>
<glyph name="AE" format="2">
  <advance width="947"/>
  <unicode hex="00C6"/>
  <anchor x="504" y="690" name="top"/>
  <anchor x="504" y="0" name="bottom"/>
  <outline>
    <contour>
      <point x="17" y="32" type="line"/>
      <point x="212" y="690" type="line"/>
      <point x="897" y="690" type="line"/>
      <point x="897" y="533" type="line"/>
      <point x="591" y="533" type="line"/>
      <point x="591" y="430" type="line"/>
      <point x="867" y="430" type="line"/>
      <point x="867" y="273" type="line"/>
      <point x="591" y="273" type="line"/>
      <point x="591" y="157" type="line"/>
      <point x="897" y="157" type="line"/>
      <point x="897" y="0" type="line"/>
      <point x="417" y="0" type="line"/>
      <point x="417" y="123" type="line"/>
      <point x="218" y="123" type="line"/>
      <point x="184" y="0" type="line"/>
      <point x="38" y="0" type="line"/>
    </contour>
    <contour>
      <point x="264" y="280" type="line"/>
      <point x="417" y="280" type="line"/>
      <point x="417" y="533" type="line"/>
      <point x="336" y="533" type="line"/>
    </contour>
  </outline>
</glyph>
<glyph name="Oslash" format="2">
  <advance width="712"/>
  <unicode hex="00D8"/>
  <anchor x="356" y="690" name="top"/>
  <anchor x="356" y="0" name="bottom"/>
  <outline>
    <contour>
      <point x="68" y="176" type="qcurve" smooth="yes"/>
      <point x="68" y="514" type="line" smooth="yes"/>
      <point x="68" y="690"/>
      <point x="244" y="690" type="qcurve" smooth="yes"/>
      <point x="468" y="690" type="line" smooth="yes"/>
      <point x="644" y="690"/>
      <point x="644" y="514" type="qcurve" smooth="yes"/>
      <point x="644" y="176" type="line" smooth="yes"/>
      <point x="644" y="0"/>
      <point x="468" y="0" type="qcurve" smooth="yes"/>
      <point x="244" y="0" type="line" smooth="yes"/>
      <point x="68" y="0"/>
    </contour>
    <contour>
      <point x="242" y="306" type="line"/>
      <point x="470" y="526" type="line"/>
      <point x="468" y="533"/>
      <point x="459" y="533" type="qcurve" smooth="yes"/>
      <point x="253" y="533" type="line" smooth="yes"/>
      <point x="242" y="533"/>
      <point x="242" y="522" type="qcurve" smooth="yes"/>
    </contour>
    <contour>
      <point x="242" y="164" type="line"/>
      <point x="244" y="157"/>
      <point x="253" y="157" type="qcurve" smooth="yes"/>
      <point x="459" y="157" type="line" smooth="yes"/>
      <point x="470" y="157"/>
      <point x="470" y="168" type="qcurve" smooth="yes"/>
      <point x="470" y="384" type="line"/>
    </contour>
  </outline>
</glyph>
<glyph name="Thorn" format="2">
  <advance width="642"/>
  <unicode hex="00DE"/>
  <outline>
    <contour>
      <point x="78" y="0" type="line"/>
      <point x="78" y="690" type="line"/>
      <point x="252" y="690" type="line"/>
      <point x="252" y="600" type="line"/>
      <point x="418" y="600" type="line" smooth="yes"/>
      <point x="594" y="600"/>
      <point x="594" y="424" type="qcurve" smooth="yes"/>
      <point x="594" y="280" type="line" smooth="yes"/>
      <point x="594" y="104"/>
      <point x="418" y="104" type="qcurve" smooth="yes"/>
      <point x="252" y="104" type="line"/>
      <point x="252" y="0" type="line"/>
    </contour>
    <contour>
      <point x="252" y="261" type="line"/>
      <point x="409" y="261" type="line" smooth="yes"/>
      <point x="420" y="261"/>
      <point x="420" y="272" type="qcurve" smooth="yes"/>
      <point x="420" y="432" type="line" smooth="yes"/>
      <point x="420" y="443"/>
      <point x="409" y="443" type="qcurve" smooth="yes"/>
      <point x="252" y="443" type="line"/>
    </contour>
  </outline>
</glyph>
<glyph name="ae" format="2">
  <advance width="856"/>
  <unicode hex="00E6"/>
  <outline>
    <contour>
      <point x="208" y="0" type="line" smooth="yes"/>
      <point x="40" y="0"/>
      <point x="40" y="326"/>
      <point x="208" y="326" type="qcurve" smooth="yes"/>
      <point x="325" y="326" type="line"/>
      <point x="325" y="374" type="line" smooth="yes"/>
      <point x="325" y="387"/>
      <point x="312" y="387" type="qcurve" smooth="yes"/>
      <point x="99" y="387" type="line"/>
      <point x="99" y="480" type="line"/>
      <point x="169" y="532" type="line"/>
      <point x="298" y="532" type="line" smooth="yes"/>
      <point x="368" y="532"/>
      <point x="408" y="492" type="qcurve"/>
      <point x="448" y="532"/>
      <point x="520" y="532" type="qcurve" smooth="yes"/>
      <point x="628" y="532" type="line" smooth="yes"/>
      <point x="796" y="532"/>
      <point x="796" y="364" type="qcurve" smooth="yes"/>
      <point x="796" y="205" type="line"/>
      <point x="492" y="205" type="line"/>
      <point x="492" y="158" type="line" smooth="yes"/>
      <point x="492" y="145"/>
      <point x="505" y="145" type="qcurve" smooth="yes"/>
      <point x="776" y="145" type="line"/>
      <point x="776" y="52" type="line"/>
      <point x="706" y="0" type="line"/>
      <point x="520" y="0" type="line" smooth="yes"/>
      <point x="448" y="0"/>
      <point x="408" y="40" type="qcurve"/>
      <point x="368" y="0"/>
      <point x="298" y="0" type="qcurve" smooth="yes"/>
    </contour>
    <contour>
      <point x="207" y="158" type="line" smooth="yes"/>
      <point x="207" y="145"/>
      <point x="220" y="145" type="qcurve" smooth="yes"/>
      <point x="312" y="145" type="line" smooth="yes"/>
      <point x="325" y="145"/>
      <point x="325" y="158" type="qcurve" smooth="yes"/>
      <point x="325" y="200" type="line"/>
      <point x="220" y="200" type="line" smooth="yes"/>
      <point x="207" y="200"/>
      <point x="207" y="187" type="qcurve" smooth="yes"/>
    </contour>
    <contour>
      <point x="492" y="331" type="line"/>
      <point x="629" y="331" type="line"/>
      <point x="629" y="374" type="line" smooth="yes"/>
      <point x="629" y="387"/>
      <point x="616" y="387" type="qcurve" smooth="yes"/>
      <point x="505" y="387" type="line" smooth="yes"/>
      <point x="492" y="387"/>
      <point x="492" y="374" type="qcurve" smooth="yes"/>
    </contour>
  </outline>
</glyph>
<glyph name="oslash" format="2">
  <advance width="596"/>
  <unicode hex="00F8"/>
  <anchor x="298" y="532" name="top"/>
  <anchor x="298" y="0" name="bottom"/>
  <outline>
    <contour>
      <point x="60" y="168" type="qcurve" smooth="yes"/>
      <point x="60" y="364" type="line" smooth="yes"/>
      <point x="60" y="532"/>
      <point x="228" y="532" type="qcurve" smooth="yes"/>
      <point x="368" y="532" type="line" smooth="yes"/>
      <point x="536" y="532"/>
      <point x="536" y="364" type="qcurve" smooth="yes"/>
      <point x="536" y="168" type="line" smooth="yes"/>
      <point x="536" y="0"/>
      <point x="368" y="0" type="qcurve" smooth="yes"/>
      <point x="228" y="0" type="line" smooth="yes"/>
      <point x="60" y="0"/>
    </contour>
    <contour>
      <point x="227" y="266" type="line"/>
      <point x="366" y="383" type="line"/>
      <point x="363" y="387"/>
      <point x="356" y="387" type="qcurve" smooth="yes"/>
      <point x="240" y="387" type="line" smooth="yes"/>
      <point x="227" y="387"/>
      <point x="227" y="374" type="qcurve" smooth="yes"/>
    </contour>
    <contour>
      <point x="230" y="149" type="line"/>
      <point x="233" y="145"/>
      <point x="240" y="145" type="qcurve" smooth="yes"/>
      <point x="356" y="145" type="line" smooth="yes"/>
      <point x="369" y="145"/>
      <point x="369" y="158" type="qcurve" smooth="yes"/>
      <point x="369" y="266" type="line"/>
    </contour>
  </outline>
</glyph>
<glyph name="OE" format="2">
  <advance width="983"/>
  <unicode hex="0152"/>
  <anchor x="540" y="690" name="top"/>
  <anchor x="540" y="0" name="bottom"/>
  <outline>
    <contour>
      <point x="68" y="176" type="qcurve" smooth="yes"/>
      <point x="68" y="514" type="line" smooth="yes"/>
      <point x="68" y="690"/>
      <point x="244" y="690" type="qcurve" smooth="yes"/>
      <point x="933" y="690" type="line"/>
      <point x="933" y="533" type="line"/>
      <point x="627" y="533" type="line"/>
      <point x="627" y="430" type="line"/>
      <point x="903" y="430" type="line"/>
      <point x="903" y="273" type="line"/>
      <point x="627" y="273" type="line"/>
      <point x="627" y="157" type="line"/>
      <point x="933" y="157" type="line"/>
      <point x="933" y="0" type="line"/>
      <point x="244" y="0" type="line" smooth="yes"/>
      <point x="68" y="0"/>
    </contour>
    <contour>
      <point x="242" y="168" type="line" smooth="yes"/>
      <point x="242" y="157"/>
      <point x="253" y="157" type="qcurve" smooth="yes"/>
      <point x="453" y="157" type="line"/>
      <point x="453" y="533" type="line"/>
      <point x="253" y="533" type="line" smooth="yes"/>
      <point x="242" y="533"/>
      <point x="242" y="522" type="qcurve" smooth="yes"/>
    </contour>
  </outline>
</glyph>
<glyph name="uni0300" format="2">
  <unicode hex="0300"/>
  <anchor x="-292" y="532" name="_top"/>
  <outline>
    <contour>
      <point x="-426" y="732" type="line"/>
      <point x="-338" y="815" type="line"/>
      <point x="-196" y="652" type="line"/>
      <point x="-273" y="578" type="line"/>
    </contour>
  </outline>
</glyph>
<glyph name="uni0301" format="2">
  <unicode hex="0301"/>
  <anchor x="-292" y="532" name="_top"/>
  <outline>
    <contour>
      <point x="-388" y="652" type="line"/>
      <point x="-246" y="815" type="line"/>
      <point x="-158" y="732" type="line"/>
      <point x="-311" y="578" type="line"/>
    </contour>
  </outline>
</glyph>
<glyph name="uni0303" format="2">
  <unicode hex="0303"/>
  <anchor x="-292" y="532" name="_top"/>
  <outline>
    <contour>
      <point x="-480" y="659" type="line"/>
      <point x="-408" y="731" type="line" smooth="yes"/>
      <point x="-386" y="753"/>
      <point x="-310" y="753"/>
      <point x="-288" y="731" type="qcurve" smooth="yes"/>
      <point x="-241" y="684" type="line" smooth="yes"/>
      <point x="-238" y="681"/>
      <point x="-234" y="681"/>
      <point x="-231" y="684" type="qcurve" smooth="yes"/>
      <point x="-173" y="742" type="line"/>
      <point x="-104" y="673" type="line"/>
      <point x="-176" y="601" type="line" smooth="yes"/>
      <point x="-198" y="579"/>
      <point x="-274" y="579"/>
      <point x="-296" y="601" type="qcurve" smooth="yes"/>
      <point x="-343" y="648" type="line" smooth="yes"/>
      <point x="-346" y="651"/>
      <point x="-350" y="651"/>
      <point x="-353" y="648" type="qcurve" smooth="yes"/>
      <point x="-411" y="590" type="line"/>
    </contour>
  </outline>
</glyph>
<glyph name="uni0304" format="2">
  <unicode hex="0304"/>
  <anchor x="-292" y="532" name="_top"/>
  <outline>
    <contour>
      <point x="-446" y="614" type="line"/>
      <point x="-446" y="726" type="line"/>
      <point x="-138" y="726" type="line"/>
      <point x="-138" y="614" type="line"/>
    </contour>
  </outline>
</glyph>
<glyph name="uni0306" format="2">
  <advance width="0"/>
  <unicode hex="0306"/>
  <outline>
    <contour>
      <point x="-436" y="686" type="qcurve" smooth="yes"/>
      <point x="-436" y="755" type="line"/>
      <point x="-344" y="755" type="line"/>
      <point x="-344" y="692" type="line" smooth="yes"/>
      <point x="-344" y="688"/>
      <point x="-340" y="688" type="qcurve" smooth="yes"/>
      <point x="-244" y="688" type="line" smooth="yes"/>
      <point x="-240" y="688"/>
      <point x="-240" y="692" type="qcurve" smooth="yes"/>
      <point x="-240" y="755" type="line"/>
      <point x="-148" y="755" type="line"/>
      <point x="-148" y="686" type="line" smooth="yes"/>
      <point x="-148" y="595"/>
      <point x="-239" y="595" type="qcurve" smooth="yes"/>
      <point x="-345" y="595" type="line" smooth="yes"/>
      <point x="-436" y="595"/>
    </contour>
  </outline>
</glyph>
<glyph name="uni0307" format="2">
  <unicode hex="0307"/>
  <anchor x="-292" y="532" name="_top"/>
  <outline>
    <contour>
      <point x="-378" y="614" type="line"/>
      <point x="-378" y="769" type="line"/>
      <point x="-206" y="769" type="line"/>
      <point x="-206" y="614" type="line"/>
    </contour>
  </outline>
</glyph>
<glyph name="uni0308" format="2">
  <unicode hex="0308"/>
  <anchor x="-292" y="532" name="_top"/>
  <outline>
    <contour>
      <point x="-467" y="598" type="line"/>
      <point x="-467" y="740" type="line"/>
      <point x="-327" y="740" type="line"/>
      <point x="-327" y="598" type="line"/>
    </contour>
    <contour>
      <point x="-257" y="598" type="line"/>
      <point x="-257" y="740" type="line"/>
      <point x="-117" y="740" type="line"/>
      <point x="-117" y="598" type="line"/>
    </contour>
  </outline>
</glyph>
<glyph name="uni030B" format="2">
  <unicode hex="030B"/>
  <anchor x="-292" y="532" name="_top"/>
  <outline>
    <contour>
      <point x="-474" y="642" type="line"/>
      <point x="-356" y="815" type="line"/>
      <point x="-262" y="744" type="line"/>
      <point x="-391" y="578" type="line"/>
    </contour>
    <contour>
      <point x="-279" y="642" type="line"/>
      <point x="-161" y="815" type="line"/>
      <point x="-66" y="744" type="line"/>
      <point x="-196" y="578" type="line"/>
    </contour>
  </outline>
</glyph>
<glyph name="uni0326" format="2">
  <unicode hex="0326"/>
  <anchor x="-292" y="0" name="_bottom"/>
  <outline>
    <contour>
      <point x="-389" y="-176" type="line"/>
      <point x="-360" y="-50" type="line"/>
      <point x="-240" y="-50" type="line"/>
      <point x="-223" y="-74" type="line"/>
      <point x="-278" y="-208" type="line"/>
    </contour>
  </outline>
</glyph>
<glyph name="uni1E9E" format="2">
  <advance width="711"/>
  <unicode hex="1E9E"/>
  <outline>
    <contour>
      <point x="72" y="0" type="line"/>
      <point x="72" y="514" type="line" smooth="yes"/>
      <point x="72" y="690"/>
      <point x="248" y="690" type="qcurve" smooth="yes"/>
      <point x="588" y="690" type="line"/>
      <point x="588" y="556" type="line"/>
      <point x="497" y="430" type="line"/>
      <point x="501" y="430" type="line" smooth="yes"/>
      <point x="663" y="430"/>
      <point x="663" y="244" type="qcurve" smooth="yes"/>
      <point x="663" y="176" type="line" smooth="yes"/>
      <point x="663" y="0"/>
      <point x="488" y="0" type="qcurve" smooth="yes"/>
      <point x="373" y="0" type="line"/>
      <point x="295" y="60" type="line"/>
      <point x="295" y="157" type="line"/>
      <point x="478" y="157" type="line" smooth="yes"/>
      <point x="489" y="157"/>
      <point x="489" y="168" type="qcurve" smooth="yes"/>
      <point x="489" y="262" type="line" smooth="yes"/>
      <point x="489" y="273"/>
      <point x="478" y="273" type="qcurve" smooth="yes"/>
      <point x="300" y="273" type="line"/>
      <point x="300" y="408" type="line"/>
      <point x="391" y="533" type="line"/>
      <point x="257" y="533" type="line" smooth="yes"/>
      <point x="246" y="533"/>
      <point x="246" y="522" type="qcurve" smooth="yes"/>
      <point x="246" y="0" type="line"/>
    </contour>
  </outline>
</glyph>
<glyph name="radical" format="2">
  <advance width="628"/>
  <unicode hex="221A"/>
  <outline>
    <contour>
      <point x="20" y="285" type="line"/>
      <point x="20" y="400" type="line"/>
      <point x="215" y="400" type="line"/>
      <point x="288" y="180" type="line"/>
      <point x="502" y="800" type="line"/>
      <point x="626" y="758" type="line"/>
      <point x="359" y="-10" type="line"/>
      <point x="208" y="-10" type="line"/>
      <point x="108" y="285" type="line"/>
    </contour>
  </outline>
</glyph>
<glyph name="notequal" format="2">
  <advance width="578"/>
  <unicode hex="2260"/>
  <outline>
    <contour>
      <point x="58" y="154" type="line"/>
      <point x="58" y="296" type="line"/>
      <point x="197" y="296" type="line"/>
      <point x="237" y="374" type="line"/>
      <point x="58" y="374" type="line"/>
      <point x="58" y="516" type="line"/>
      <point x="309" y="516" type="line"/>
      <point x="362" y="622" type="line"/>
      <point x="477" y="562" type="line"/>
      <point x="453" y="516" type="line"/>
      <point x="520" y="516" type="line"/>
      <point x="520" y="374" type="line"/>
      <point x="381" y="374" type="line"/>
      <point x="341" y="296" type="line"/>
      <point x="520" y="296" type="line"/>
      <point x="520" y="154" type="line"/>
      <point x="269" y="154" type="line"/>
      <point x="216" y="48" type="line"/>
      <point x="101" y="108" type="line"/>
      <point x="125" y="154" type="line"/>
    </contour>
  </outline>
</glyph>
<glyph name="lozenge" format="2">
  <advance width="578"/>
  <unicode hex="25CA"/>
  <outline>
    <contour>
      <point x="16" y="345" type="line"/>
      <point x="214" y="690" type="line"/>
      <point x="364" y="690" type="line"/>
      <point x="562" y="345" type="line"/>
      <point x="364" y="0" type="line"/>
      <point x="214" y="0" type="line"/>
    </contour>
    <contour>
      <point x="166" y="345" type="line"/>
      <point x="289" y="130" type="line"/>
      <point x="412" y="345" type="line"/>
      <point x="289" y="560" type="line"/>
    </contour>
  </outline>
</glyph>
<glyph name="uni0301.cap" format="2">
  <anchor x="-335" y="690" name="_top"/>
  <outline>
    <contour>
      <point x="-432" y="800" type="line"/>
      <point x="-288" y="963" type="line"/>
      <point x="-200" y="880" type="line"/>
      <point x="-354" y="726" type="line"/>
    </contour>
  </outline>
</glyph>
<glyph name="uni0303.cap" format="2">
  <anchor x="-335" y="690" name="_top"/>
  <outline>
    <contour>
      <point x="-523" y="807" type="line"/>
      <point x="-451" y="879" type="line" smooth="yes"/>
      <point x="-429" y="901"/>
      <point x="-353" y="901"/>
      <point x="-331" y="879" type="qcurve" smooth="yes"/>
      <point x="-284" y="832" type="line" smooth="yes"/>
      <point x="-281" y="829"/>
      <point x="-277" y="829"/>
      <point x="-274" y="832" type="qcurve" smooth="yes"/>
      <point x="-216" y="890" type="line"/>
      <point x="-147" y="821" type="line"/>
      <point x="-219" y="749" type="line" smooth="yes"/>
      <point x="-241" y="727"/>
      <point x="-317" y="727"/>
      <point x="-339" y="749" type="qcurve" smooth="yes"/>
      <point x="-386" y="796" type="line" smooth="yes"/>
      <point x="-389" y="799"/>
      <point x="-393" y="799"/>
      <point x="-396" y="796" type="qcurve" smooth="yes"/>
      <point x="-454" y="738" type="line"/>
    </contour>
  </outline>
</glyph>
<glyph name="uni0304.cap" format="2">
  <anchor x="-335" y="690" name="_top"/>
  <outline>
    <contour>
      <point x="-489" y="762" type="line"/>
      <point x="-489" y="874" type="line"/>
      <point x="-181" y="874" type="line"/>
      <point x="-181" y="762" type="line"/>
    </contour>
  </outline>
</glyph>
<glyph name="uni0307.cap" format="2">
  <anchor x="-335" y="690" name="_top"/>
  <outline>
    <contour>
      <point x="-420" y="762" type="line"/>
      <point x="-420" y="917" type="line"/>
      <point x="-250" y="917" type="line"/>
      <point x="-250" y="762" type="line"/>
    </contour>
  </outline>
</glyph>
<glyph name="uni030B.cap" format="2">
  <anchor x="-335" y="690" name="_top"/>
  <outline>
    <contour>
      <point x="-517" y="790" type="line"/>
      <point x="-399" y="963" type="line"/>
      <point x="-304" y="892" type="line"/>
      <point x="-434" y="726" type="line"/>
    </contour>
    <contour>
      <point x="-322" y="790" type="line"/>
      <point x="-204" y="963" type="line"/>
      <point x="-110" y="892" type="line"/>
      <point x="-239" y="726" type="line"/>
    </contour>
  </outline>
</glyph>
<glyph name="uni030C.alt" format="2">
  <advance width="0"/>
  <outline>
    <contour>
      <point x="-80" y="578" type="line"/>
      <point x="-42" y="772" type="line"/>
      <point x="64" y="772" type="line"/>
      <point x="80" y="748" type="line"/>
      <point x="16" y="554" type="line"/>
    </contour>
  </outline>
</glyph>
<glyph name="uni030C.cap" format="2">
  <anchor x="-335" y="690" name="_top"/>
  <outline>
    <contour>
      <point x="-502" y="880" type="line"/>
      <point x="-432" y="953" type="line"/>
      <point x="-335" y="860" type="line"/>
      <point x="-238" y="953" type="line"/>
      <point x="-168" y="880" type="line"/>
      <point x="-335" y="717" type="line"/>
    </contour>
  </outline>
</glyph>
<glyph name="uni0326.alt" format="2">
  <advance width="0"/>
  <outline>
    <contour>
      <point x="-59" y="630" type="line"/>
      <point x="-4" y="764" type="line"/>
      <point x="107" y="732" type="line"/>
      <point x="78" y="606" type="line"/>
      <point x="-42" y="606" type="line"/>
    </contour>
  </outline>
</glyph>
